<svg xmlns="http://www.w3.org/2000/svg" viewBox="0 0 32 32" role="img" aria-label="툰스펙트럼">
  <!--
    maskable/apple-touch 소스 아이콘 — favicon.svg의 파생본.
    런처 마스크(원형·스쿼클 등)에 잘리지 않도록 full-bleed 배경 위에
    아트워크를 0.78 스케일로 세이프존(중심 반경 40% 원) 안에 배치.
    래스터 재생성: qlmanage -t -s 1024 → sips -z (icon-maskable-192/512.png, apple-touch-icon.png)
  -->
  <!-- full-bleed 배경 (마스크 모양은 런처가 결정) -->
  <rect width="32" height="32" fill="#1c1613" />

  <g transform="translate(3.52 3.52) scale(0.78)">
    <!-- 머리 위 스펙트럼 안테나/무지개 별/에너지 방울들 -->
    <circle cx="16" cy="4.5" r="2.2" fill="#ff5e62" /> <!-- 빨강 -->
    <circle cx="11" cy="6" r="1.8" fill="#ff9966" />   <!-- 주황 -->
    <circle cx="21" cy="6" r="1.8" fill="#ffd15c" />   <!-- 노랑 -->
    <circle cx="7" cy="9.5" r="1.4" fill="#4fe090" />   <!-- 초록 -->
    <circle cx="25" cy="9.5" r="1.4" fill="#4ca3f5" />  <!-- 파랑 -->

    <!-- 말풍선 꼬리 (귀여운 캐릭터 뒤에 튀어나온 꼬리 느낌) -->
    <path d="M 12 25 L 7 28.5 L 9 23 Z" fill="#ffffff" stroke="#251c17" stroke-width="1.8" stroke-linejoin="round" />

    <!-- 귀여운 둥글둥글 말풍선 몸통 -->
    <rect x="6" y="8" width="20" height="17" rx="5.5" ry="5.5" fill="#ffffff" stroke="#251c17" stroke-width="1.8" />

    <!-- 볼터치 -->
    <ellipse cx="9.5" cy="18.5" rx="2.2" ry="1.3" fill="#ffaab3" />
    <ellipse cx="22.5" cy="18.5" rx="2.2" ry="1.3" fill="#ffaab3" />

    <!-- 똘망똘망한 눈 -->
    <!-- 왼쪽 눈 -->
    <circle cx="12.2" cy="16" r="1.6" fill="#251c17" />
    <circle cx="11.7" cy="15.5" r="0.5" fill="#ffffff" />
    <!-- 오른쪽 눈 -->
    <circle cx="19.8" cy="16" r="1.6" fill="#251c17" />
    <circle cx="19.3" cy="15.5" r="0.5" fill="#ffffff" />

    <!-- 귀여운 웃는 입 -->
    <path d="M 14.5 18 Q 16 19.5 17.5 18" stroke="#251c17" stroke-width="1.2" stroke-linecap="round" fill="none" />

    <!-- 반짝이 노란 별 -->
    <path d="M 23.5 11 L 24 12.3 L 25.3 12.8 L 24 13.3 L 23.5 14.6 L 23 13.3 L 21.7 12.8 L 23 12.3 Z" fill="#ffd15c" />
  </g>
</svg>
