<svg xmlns="http://www.w3.org/2000/svg" width="512" height="512" viewBox="0 0 512 512" role="img" aria-label="툰스펙트럼">
  <defs>
    <linearGradient id="bg" x1="70" y1="40" x2="442" y2="476" gradientUnits="userSpaceOnUse">
      <stop stop-color="#3b224f"/>
      <stop offset=".56" stop-color="#1a1410"/>
      <stop offset="1" stop-color="#3b224f"/>
    </linearGradient>
    <radialGradient id="glow" cx="72%" cy="23%" r="68%">
      <stop stop-color="#ff5c8a" stop-opacity=".72"/>
      <stop offset=".58" stop-color="#facc15" stop-opacity=".24"/>
      <stop offset="1" stop-color="#1a1410" stop-opacity="0"/>
    </radialGradient>
    <filter id="shadow" x="-20%" y="-20%" width="140%" height="140%">
      <feDropShadow dx="0" dy="18" stdDeviation="22" flood-color="#1a1410" flood-opacity=".34"/>
    </filter>
  </defs>
  <rect width="512" height="512" rx="94" fill="url(#bg)"/>
  <rect width="512" height="512" rx="94" fill="url(#glow)"/>
  <path d="M46 342C154 278 238 414 466 292" fill="none" stroke="#f7efe4" stroke-opacity=".1" stroke-width="26" stroke-linecap="round"/>
  <g filter="url(#shadow)">
        <g transform="translate(-20 -20) scale(1.08)">
          <rect x="108" y="116" width="128" height="158" rx="28" fill="#f7efe4"/>
          <rect x="260" y="116" width="144" height="96" rx="28" fill="#ff5c8a"/>
          <rect x="260" y="236" width="144" height="160" rx="28" fill="#f7efe4"/>
          <rect x="108" y="298" width="128" height="98" rx="28" fill="#facc15"/>
          <path d="M144 164h54M144 202h34M296 284h70M296 326h42" stroke="#1a1410" stroke-width="18" stroke-linecap="round"/>
          <path d="M120 416c84 28 188 28 272 0" fill="none" stroke="#ff5c8a" stroke-width="24" stroke-linecap="round"/>
        </g></g>
</svg>
