<svg xmlns="http://www.w3.org/2000/svg" width="1200" height="630" viewBox="0 0 1200 630" role="img" aria-label="툰스펙트럼">
  <defs>
    <linearGradient id="bg" x1="0" y1="0" x2="1200" y2="630" gradientUnits="userSpaceOnUse">
      <stop stop-color="#1a1410"/>
      <stop offset=".58" stop-color="#3b224f"/>
      <stop offset="1" stop-color="#ff5c8a"/>
    </linearGradient>
    <radialGradient id="halo" cx="78%" cy="19%" r="62%">
      <stop stop-color="#facc15" stop-opacity=".82"/>
      <stop offset=".56" stop-color="#ff5c8a" stop-opacity=".22"/>
      <stop offset="1" stop-color="#1a1410" stop-opacity="0"/>
    </radialGradient>
    <filter id="soft" x="-20%" y="-20%" width="140%" height="140%">
      <feDropShadow dx="0" dy="18" stdDeviation="24" flood-color="#1a1410" flood-opacity=".26"/>
    </filter>
  </defs>
  <rect width="1200" height="630" fill="url(#bg)"/>
  <rect width="1200" height="630" fill="url(#halo)"/>
  <path d="M0 498C166 430 340 458 512 512c176 54 336 44 504-54 72-42 126-57 184-54v226H0Z" fill="#f7efe4" opacity=".12"/>
  <path d="M74 96h216M74 542h412" stroke="#f7efe4" stroke-opacity=".16" stroke-width="16" stroke-linecap="round"/>
  <g transform="translate(84 86)" filter="url(#soft)">
    <svg width="104" height="104" viewBox="0 0 512 512">
  <rect width="512" height="512" rx="116" fill="url(#bg)"/>
  <rect width="512" height="512" rx="116" fill="url(#glow)"/>
  <path d="M46 342C154 278 238 414 466 292" fill="none" stroke="#f7efe4" stroke-opacity=".1" stroke-width="26" stroke-linecap="round"/>
  <g filter="url(#shadow)">
        <g transform="translate(0 0) scale(1)">
          <rect x="108" y="116" width="128" height="158" rx="28" fill="#f7efe4"/>
          <rect x="260" y="116" width="144" height="96" rx="28" fill="#ff5c8a"/>
          <rect x="260" y="236" width="144" height="160" rx="28" fill="#f7efe4"/>
          <rect x="108" y="298" width="128" height="98" rx="28" fill="#facc15"/>
          <path d="M144 164h54M144 202h34M296 284h70M296 326h42" stroke="#1a1410" stroke-width="18" stroke-linecap="round"/>
          <path d="M120 416c84 28 188 28 272 0" fill="none" stroke="#ff5c8a" stroke-width="24" stroke-linecap="round"/>
        </g></g>
</svg>
  </g>
  <text x="214" y="148" font-family="Inter, Pretendard, system-ui, -apple-system, BlinkMacSystemFont, 'Segoe UI', sans-serif" font-size="34" font-weight="900" fill="#f7efe4">툰스펙트럼</text>
  <text x="92" y="270" font-family="Inter, Pretendard, system-ui, -apple-system, BlinkMacSystemFont, 'Segoe UI', sans-serif" font-size="62" font-weight="900" fill="#f7efe4">툰스펙트럼</text>
  <text x="94" y="335" font-family="Pretendard, system-ui, -apple-system, BlinkMacSystemFont, 'Segoe UI', sans-serif" font-size="27" font-weight="700" fill="#f7efe4" opacity=".86">웹툰과 웹소설을 검색, 랭킹, 캘린더, 리뷰로 연결하는 통합 인덱스</text>
  <g transform="translate(92 485)"><rect width="166" height="44" rx="22" fill="#f7efe4" opacity=".13" stroke="#f7efe4" stroke-opacity=".26"/><text x="83" y="28" text-anchor="middle" font-size="15" font-weight="800" fill="#f7efe4">통합 검색</text></g><g transform="translate(282 485)"><rect width="166" height="44" rx="22" fill="#f7efe4" opacity=".13" stroke="#f7efe4" stroke-opacity=".26"/><text x="83" y="28" text-anchor="middle" font-size="15" font-weight="800" fill="#f7efe4">랭킹</text></g><g transform="translate(472 485)"><rect width="166" height="44" rx="22" fill="#f7efe4" opacity=".13" stroke="#f7efe4" stroke-opacity=".26"/><text x="83" y="28" text-anchor="middle" font-size="15" font-weight="800" fill="#f7efe4">연재 캘린더</text></g>
  <g filter="url(#soft)">
    <g transform="translate(722 116)">
      <rect width="342" height="330" rx="46" fill="#f7efe4" opacity=".94"/>
      <rect x="34" y="36" width="176" height="22" rx="11" fill="#1a1410" opacity=".84"/>
      <rect x="34" y="82" width="252" height="14" rx="7" fill="#1a1410" opacity=".22"/>
      <rect x="34" y="112" width="206" height="14" rx="7" fill="#1a1410" opacity=".14"/>
      <g transform="translate(34 156) scale(.56)">
        <g transform="translate(0 0) scale(1)">
          <rect x="108" y="116" width="128" height="158" rx="28" fill="#f7efe4"/>
          <rect x="260" y="116" width="144" height="96" rx="28" fill="#ff5c8a"/>
          <rect x="260" y="236" width="144" height="160" rx="28" fill="#f7efe4"/>
          <rect x="108" y="298" width="128" height="98" rx="28" fill="#facc15"/>
          <path d="M144 164h54M144 202h34M296 284h70M296 326h42" stroke="#1a1410" stroke-width="18" stroke-linecap="round"/>
          <path d="M120 416c84 28 188 28 272 0" fill="none" stroke="#ff5c8a" stroke-width="24" stroke-linecap="round"/>
        </g></g>
      <rect x="216" y="177" width="72" height="118" rx="24" fill="#ff5c8a" opacity=".88"/>
      <rect x="104" y="252" width="184" height="22" rx="11" fill="#facc15" opacity=".82"/>
    </g></g>
</svg>
