<svg xmlns="http://www.w3.org/2000/svg" viewBox="0 0 1200 630" role="img" aria-label="툰스펙트럼 공유 이미지">
  <rect width="1200" height="630" fill="#17130f" />
  <circle cx="140" cy="76" r="210" fill="#e06b3a" opacity="0.16" />
  <circle cx="1060" cy="570" r="260" fill="#5aa8dc" opacity="0.12" />
  <path d="M0 520C220 456 360 584 540 520s312-68 660 18v92H0Z" fill="#211912" opacity="0.78" />

  <g transform="translate(88 84) scale(2.05)">
    <rect width="32" height="32" rx="8" fill="#201a14" />
    <rect x="1" y="1" width="30" height="30" rx="7" fill="none" stroke="#f8f0df" opacity="0.14" />
    <circle cx="8" cy="6" r="9" fill="#e06b3a" opacity="0.2" />
    <circle cx="25" cy="27" r="8" fill="#5aa8dc" opacity="0.16" />
    <path d="M7.1 6.7h17.8c1.3 0 2.3 1 2.3 2.3v11.3c0 1.3-1 2.3-2.3 2.3h-8.3l-5 3.9c-.6.5-1.5 0-1.3-.8l.6-3.1H7.1c-1.3 0-2.3-1-2.3-2.3V9c0-1.3 1-2.3 2.3-2.3Z" fill="#f8f0df" />
    <path d="M7.1 6.7h17.8c1.3 0 2.3 1 2.3 2.3v11.3c0 1.3-1 2.3-2.3 2.3h-8.3l-5 3.9c-.6.5-1.5 0-1.3-.8l.6-3.1H7.1c-1.3 0-2.3-1-2.3-2.3V9c0-1.3 1-2.3 2.3-2.3Z" fill="none" stroke="#fff8ea" stroke-width="0.9" opacity="0.45" />
    <path d="M7.1 16h6.2" stroke="#e06b3a" stroke-width="2.2" stroke-linecap="round" />
    <path d="M17.1 15.8C20 13 22.1 11.6 25.4 10.7" stroke="#e85d3f" stroke-width="2.1" stroke-linecap="round" />
    <path d="M17.3 15.9h8.5" stroke="#e4bd55" stroke-width="2.1" stroke-linecap="round" />
    <path d="M17.1 16.1C20.1 18.1 22.3 19.2 25.6 20.4" stroke="#54c87a" stroke-width="2.1" stroke-linecap="round" />
    <path d="M16.5 16.5C19.1 20.1 21.3 22 24.7 23.5" stroke="#5aa8dc" stroke-width="2.1" stroke-linecap="round" />
    <path d="M12.6 10.7 18.8 16l-6.2 5.3Z" fill="#201a14" />
    <path d="M12.6 10.7 18.8 16l-6.2 5.3Z" fill="none" stroke="#fff8ea" stroke-width="0.75" opacity="0.42" />
    <path d="M13.9 13.2 17.4 16l-3.5 2.8Z" fill="#f8f0df" opacity="0.12" />
  </g>

  <text x="176" y="124" fill="#f8f0df" font-size="40" font-weight="800" font-family="Pretendard, Apple SD Gothic Neo, system-ui, sans-serif">툰스펙트럼</text>
  <text x="378" y="122" fill="#ff884f" font-size="22" font-weight="700" letter-spacing="8" font-family="Space Grotesk, Pretendard, system-ui, sans-serif">WEBTOON · WEBNOVEL SPECTRUM</text>

  <text x="88" y="268" fill="#f8f0df" font-size="78" font-weight="800" letter-spacing="-1" font-family="Apple SD Gothic Neo, Pretendard, system-ui, sans-serif">흩어진 이야기를,</text>
  <text x="88" y="358" fill="#ff884f" font-size="82" font-weight="900" letter-spacing="-1" font-family="Apple SD Gothic Neo, Pretendard, system-ui, sans-serif">취향의 스펙트럼으로.</text>

  <text x="88" y="433" fill="#d8cec0" font-size="29" font-weight="600" font-family="Pretendard, Apple SD Gothic Neo, system-ui, sans-serif">네이버·카카오·리디·레진 등 국내 웹툰·웹소설을 가로질러</text>
  <text x="88" y="475" fill="#d8cec0" font-size="29" font-weight="600" font-family="Pretendard, Apple SD Gothic Neo, system-ui, sans-serif">무엇을, 어디서, 왜 봐야 하는지 한 곳에서.</text>

  <circle cx="92" cy="552" r="4" fill="#ff884f" />
  <text x="116" y="562" fill="#bdb2a4" font-size="23" font-weight="650" font-family="Pretendard, Apple SD Gothic Neo, system-ui, sans-serif">통합 랭킹 · 연재 캘린더 · 교차 플랫폼 가격비교 · 작가별 보기</text>
</svg>
