<svg xmlns="http://www.w3.org/2000/svg" width="480" height="480" viewBox="0 0 480 480" role="img"><title>위로 뻗기</title><defs><linearGradient id="bg" x1="0" y1="0" x2="1" y2="1"><stop stop-color="#fbf8f2"/><stop offset="1" stop-color="#e8eef2"/></linearGradient><linearGradient id="body" x1="0" y1="0" x2="1" y2="1"><stop stop-color="#55788a"/><stop offset="1" stop-color="#2f5367"/></linearGradient><filter id="shadow" x="-30%" y="-30%" width="160%" height="180%"><feDropShadow dx="0" dy="5" stdDeviation="6" flood-color="#18242d" flood-opacity=".18"/></filter></defs><rect width="480" height="480" rx="28" fill="url(#bg)"/><ellipse cx="240" cy="432" rx="108" ry="14" fill="#263944" opacity=".12"/><g stroke-linecap="round" stroke-linejoin="round" filter="url(#shadow)"><path d="M224.2 257.5L222.7 339.4" stroke="#1d2a34" stroke-width="22"/><path d="M224.2 257.5L222.7 339.4" stroke="url(#body)" stroke-width="16"/><path d="M258.4 262.8L260.0 345.1" stroke="#1d2a34" stroke-width="22"/><path d="M258.4 262.8L260.0 345.1" stroke="url(#body)" stroke-width="16"/><path d="M222.7 339.4L221.1 413.8" stroke="#1d2a34" stroke-width="19"/><path d="M222.7 339.4L221.1 413.8" stroke="url(#body)" stroke-width="13"/><path d="M260.0 345.1L261.5 420.0" stroke="#1d2a34" stroke-width="19"/><path d="M260.0 345.1L261.5 420.0" stroke="url(#body)" stroke-width="13"/><path d="M207.1 165.3L194.7 120.5" stroke="#1d2a34" stroke-width="17"/><path d="M207.1 165.3L194.7 120.5" stroke="url(#body)" stroke-width="11"/><path d="M275.5 175.8L288.0 134.8" stroke="#1d2a34" stroke-width="17"/><path d="M275.5 175.8L288.0 134.8" stroke="url(#body)" stroke-width="11"/><path d="M194.7 120.5L192.0 70.0" stroke="#1d2a34" stroke-width="15"/><path d="M194.7 120.5L192.0 70.0" stroke="url(#body)" stroke-width="9"/><path d="M288.0 134.8L272.9 82.4" stroke="#1d2a34" stroke-width="15"/><path d="M288.0 134.8L272.9 82.4" stroke="url(#body)" stroke-width="9"/><path d="M241.3 254.5L241.3 155.6" stroke="#1d2a34" stroke-width="52"/><path d="M241.3 254.5L241.3 155.6" stroke="url(#body)" stroke-width="43"/><circle cx="207.1" cy="165.3" r="5.2" fill="#d98a5f" stroke="#1d2a34" stroke-width="2"/><circle cx="275.5" cy="175.8" r="5.2" fill="#d98a5f" stroke="#1d2a34" stroke-width="2"/><circle cx="194.7" cy="120.5" r="5.2" fill="#d98a5f" stroke="#1d2a34" stroke-width="2"/><circle cx="288.0" cy="134.8" r="5.2" fill="#d98a5f" stroke="#1d2a34" stroke-width="2"/><circle cx="192.0" cy="70.0" r="5.2" fill="#d98a5f" stroke="#1d2a34" stroke-width="2"/><circle cx="272.9" cy="82.4" r="5.2" fill="#d98a5f" stroke="#1d2a34" stroke-width="2"/><circle cx="224.2" cy="257.5" r="5.2" fill="#d98a5f" stroke="#1d2a34" stroke-width="2"/><circle cx="258.4" cy="262.8" r="5.2" fill="#d98a5f" stroke="#1d2a34" stroke-width="2"/><circle cx="222.7" cy="339.4" r="5.2" fill="#d98a5f" stroke="#1d2a34" stroke-width="2"/><circle cx="260.0" cy="345.1" r="5.2" fill="#d98a5f" stroke="#1d2a34" stroke-width="2"/><circle cx="221.1" cy="413.8" r="5.2" fill="#d98a5f" stroke="#1d2a34" stroke-width="2"/><circle cx="261.5" cy="420.0" r="5.2" fill="#d98a5f" stroke="#1d2a34" stroke-width="2"/><ellipse cx="241.3" cy="122.0" rx="30" ry="36" fill="url(#body)" stroke="#1d2a34" stroke-width="4"/><circle cx="225.8" cy="126.7" r="5.5" fill="#e79a6e" stroke="#1d2a34" stroke-width="2"/></g><path d="M44 42H172" stroke="#263944" stroke-opacity=".15" stroke-width="2"/><text x="44" y="31" font-family="system-ui,sans-serif" font-size="15" font-weight="650" fill="#263944">위로 뻗기</text></svg>
