<svg xmlns="http://www.w3.org/2000/svg" width="480" height="480" viewBox="0 0 480 480" role="img"><title>등받이 의자</title><rect width="480" height="480" fill="#f4f1eb"/><path d="M30 440H450" stroke="#cdc8be"/><polygon points="228.6,370.4 241.1,363.6 241.1,232.0" fill="rgb(41,62,74)" stroke="#243743" stroke-opacity=".17" stroke-width=".4"/><polygon points="211.0,365.6 228.6,370.4 228.6,238.8" fill="rgb(57,85,101)" stroke="#243743" stroke-opacity=".17" stroke-width=".4"/><polygon points="211.0,233.9 211.0,365.6 228.6,238.8" fill="rgb(57,85,101)" stroke="#243743" stroke-opacity=".17" stroke-width=".4"/><polygon points="228.6,238.8 228.6,370.4 241.1,232.0" fill="rgb(41,62,74)" stroke="#243743" stroke-opacity=".17" stroke-width=".4"/><polygon points="223.6,227.1 211.0,233.9 241.1,232.0" fill="rgb(66,98,117)" stroke="#243743" stroke-opacity=".17" stroke-width=".4"/><polygon points="211.0,233.9 228.6,238.8 241.1,232.0" fill="rgb(66,98,117)" stroke="#243743" stroke-opacity=".17" stroke-width=".4"/><polygon points="229.2,237.7 238.8,232.4 238.8,48.7" fill="rgb(80,58,40)" stroke="#243743" stroke-opacity=".17" stroke-width=".4"/><polygon points="215.7,233.9 229.2,237.7 229.2,54.0" fill="rgb(109,79,55)" stroke="#243743" stroke-opacity=".17" stroke-width=".4"/><polygon points="325.9,397.3 338.4,390.5 338.4,258.9" fill="rgb(41,62,74)" stroke="#243743" stroke-opacity=".17" stroke-width=".4"/><polygon points="308.3,392.5 325.9,397.3 325.9,265.7" fill="rgb(57,85,101)" stroke="#243743" stroke-opacity=".17" stroke-width=".4"/><polygon points="215.7,50.2 215.7,233.9 229.2,54.0" fill="rgb(109,79,55)" stroke="#243743" stroke-opacity=".17" stroke-width=".4"/><polygon points="229.2,54.0 229.2,237.7 238.8,48.7" fill="rgb(80,58,40)" stroke="#243743" stroke-opacity=".17" stroke-width=".4"/><polygon points="222.6,209.6 135.8,256.7 344.2,243.2" fill="rgb(127,91,63)" stroke="#243743" stroke-opacity=".17" stroke-width=".4"/><polygon points="308.3,260.8 308.3,392.5 325.9,265.7" fill="rgb(57,85,101)" stroke="#243743" stroke-opacity=".17" stroke-width=".4"/><polygon points="228.4,133.9 220.7,138.1 336.5,163.8" fill="rgb(127,91,63)" stroke="#243743" stroke-opacity=".17" stroke-width=".4"/><polygon points="325.9,265.7 325.9,397.3 338.4,258.9" fill="rgb(41,62,74)" stroke="#243743" stroke-opacity=".17" stroke-width=".4"/><polygon points="159.1,408.1 171.7,401.3 171.7,269.7" fill="rgb(41,62,74)" stroke="#243743" stroke-opacity=".17" stroke-width=".4"/><polygon points="220.7,138.1 220.7,159.5 328.8,168.0" fill="rgb(109,79,55)" stroke="#243743" stroke-opacity=".17" stroke-width=".4"/><polygon points="320.9,254.0 308.3,260.8 338.4,258.9" fill="rgb(66,98,117)" stroke="#243743" stroke-opacity=".17" stroke-width=".4"/><polygon points="141.6,403.2 159.1,408.1 159.1,276.5" fill="rgb(57,85,101)" stroke="#243743" stroke-opacity=".17" stroke-width=".4"/><polygon points="225.3,45.0 215.7,50.2 238.8,48.7" fill="rgb(127,91,63)" stroke="#243743" stroke-opacity=".17" stroke-width=".4"/><polygon points="308.3,260.8 325.9,265.7 338.4,258.9" fill="rgb(66,98,117)" stroke="#243743" stroke-opacity=".17" stroke-width=".4"/><polygon points="228.4,91.0 220.7,95.2 336.5,120.9" fill="rgb(127,91,63)" stroke="#243743" stroke-opacity=".17" stroke-width=".4"/><polygon points="215.7,50.2 229.2,54.0 238.8,48.7" fill="rgb(127,91,63)" stroke="#243743" stroke-opacity=".17" stroke-width=".4"/><polygon points="220.7,95.2 220.7,116.7 328.8,125.1" fill="rgb(109,79,55)" stroke="#243743" stroke-opacity=".17" stroke-width=".4"/><polygon points="220.7,159.5 328.8,189.4 328.8,168.0" fill="rgb(109,79,55)" stroke="#243743" stroke-opacity=".17" stroke-width=".4"/><polygon points="141.6,271.6 141.6,403.2 159.1,276.5" fill="rgb(57,85,101)" stroke="#243743" stroke-opacity=".17" stroke-width=".4"/><polygon points="159.1,276.5 159.1,408.1 171.7,269.7" fill="rgb(41,62,74)" stroke="#243743" stroke-opacity=".17" stroke-width=".4"/><polygon points="220.7,138.1 328.8,168.0 336.5,163.8" fill="rgb(127,91,63)" stroke="#243743" stroke-opacity=".17" stroke-width=".4"/><polygon points="154.1,264.8 141.6,271.6 171.7,269.7" fill="rgb(66,98,117)" stroke="#243743" stroke-opacity=".17" stroke-width=".4"/><polygon points="331.9,266.1 341.5,260.8 341.5,77.1" fill="rgb(80,58,40)" stroke="#243743" stroke-opacity=".17" stroke-width=".4"/><polygon points="228.4,48.2 220.7,52.4 336.5,78.1" fill="rgb(127,91,63)" stroke="#243743" stroke-opacity=".17" stroke-width=".4"/><polygon points="220.7,52.4 220.7,73.8 328.8,82.2" fill="rgb(109,79,55)" stroke="#243743" stroke-opacity=".17" stroke-width=".4"/><polygon points="318.4,262.3 331.9,266.1 331.9,82.4" fill="rgb(109,79,55)" stroke="#243743" stroke-opacity=".17" stroke-width=".4"/><polygon points="328.8,189.4 336.5,185.2 336.5,163.8" fill="rgb(80,58,40)" stroke="#243743" stroke-opacity=".17" stroke-width=".4"/><polygon points="141.6,271.6 159.1,276.5 171.7,269.7" fill="rgb(66,98,117)" stroke="#243743" stroke-opacity=".17" stroke-width=".4"/><polygon points="220.7,116.7 328.8,146.5 328.8,125.1" fill="rgb(109,79,55)" stroke="#243743" stroke-opacity=".17" stroke-width=".4"/><polygon points="220.7,95.2 328.8,125.1 336.5,120.9" fill="rgb(127,91,63)" stroke="#243743" stroke-opacity=".17" stroke-width=".4"/><polygon points="257.4,308.7 344.2,261.6 344.2,243.2" fill="rgb(80,58,40)" stroke="#243743" stroke-opacity=".17" stroke-width=".4"/><polygon points="328.8,168.0 328.8,189.4 336.5,163.8" fill="rgb(80,58,40)" stroke="#243743" stroke-opacity=".17" stroke-width=".4"/><polygon points="328.8,146.5 336.5,142.4 336.5,120.9" fill="rgb(80,58,40)" stroke="#243743" stroke-opacity=".17" stroke-width=".4"/><polygon points="220.7,73.8 328.8,103.7 328.8,82.2" fill="rgb(109,79,55)" stroke="#243743" stroke-opacity=".17" stroke-width=".4"/><polygon points="135.8,256.7 257.4,290.3 344.2,243.2" fill="rgb(127,91,63)" stroke="#243743" stroke-opacity=".17" stroke-width=".4"/><polygon points="318.4,78.6 318.4,262.3 331.9,82.4" fill="rgb(109,79,55)" stroke="#243743" stroke-opacity=".17" stroke-width=".4"/><polygon points="220.7,52.4 328.8,82.2 336.5,78.1" fill="rgb(127,91,63)" stroke="#243743" stroke-opacity=".17" stroke-width=".4"/><polygon points="331.9,82.4 331.9,266.1 341.5,77.1" fill="rgb(80,58,40)" stroke="#243743" stroke-opacity=".17" stroke-width=".4"/><polygon points="328.8,125.1 328.8,146.5 336.5,120.9" fill="rgb(80,58,40)" stroke="#243743" stroke-opacity=".17" stroke-width=".4"/><polygon points="256.4,435.0 269.0,428.2 269.0,296.6" fill="rgb(41,62,74)" stroke="#243743" stroke-opacity=".17" stroke-width=".4"/><polygon points="135.8,256.7 135.8,275.0 257.4,290.3" fill="rgb(109,79,55)" stroke="#243743" stroke-opacity=".17" stroke-width=".4"/><polygon points="238.9,430.1 256.4,435.0 256.4,303.4" fill="rgb(57,85,101)" stroke="#243743" stroke-opacity=".17" stroke-width=".4"/><polygon points="328.8,103.7 336.5,99.5 336.5,78.1" fill="rgb(80,58,40)" stroke="#243743" stroke-opacity=".17" stroke-width=".4"/><polygon points="328.0,73.4 318.4,78.6 341.5,77.1" fill="rgb(127,91,63)" stroke="#243743" stroke-opacity=".17" stroke-width=".4"/><polygon points="328.8,82.2 328.8,103.7 336.5,78.1" fill="rgb(80,58,40)" stroke="#243743" stroke-opacity=".17" stroke-width=".4"/><polygon points="257.4,290.3 257.4,308.7 344.2,243.2" fill="rgb(80,58,40)" stroke="#243743" stroke-opacity=".17" stroke-width=".4"/><polygon points="318.4,78.6 331.9,82.4 341.5,77.1" fill="rgb(127,91,63)" stroke="#243743" stroke-opacity=".17" stroke-width=".4"/><polygon points="238.9,298.5 238.9,430.1 256.4,303.4" fill="rgb(57,85,101)" stroke="#243743" stroke-opacity=".17" stroke-width=".4"/><polygon points="256.4,303.4 256.4,435.0 269.0,296.6" fill="rgb(41,62,74)" stroke="#243743" stroke-opacity=".17" stroke-width=".4"/><polygon points="135.8,275.0 257.4,308.7 257.4,290.3" fill="rgb(109,79,55)" stroke="#243743" stroke-opacity=".17" stroke-width=".4"/><polygon points="251.4,291.7 238.9,298.5 269.0,296.6" fill="rgb(66,98,117)" stroke="#243743" stroke-opacity=".17" stroke-width=".4"/><polygon points="238.9,298.5 256.4,303.4 269.0,296.6" fill="rgb(66,98,117)" stroke="#243743" stroke-opacity=".17" stroke-width=".4"/></svg>
