<svg xmlns="http://www.w3.org/2000/svg" viewBox="0 0 600 800"><defs><linearGradient id="night" x1="0" y1="0" x2="0" y2="1"><stop offset="0" stop-color="#050310"/><stop offset="0.7" stop-color="#0f1035"/><stop offset="1" stop-color="#1b2a6b"/></linearGradient></defs><rect width="600" height="800" fill="url(#night)"/><ellipse cx="150" cy="700" rx="180" ry="60" fill="#fbbf24" opacity="0.18"/><ellipse cx="450" cy="700" rx="180" ry="60" fill="#38bdf8" opacity="0.18"/><rect x="0" y="40" width="120" height="10" rx="5" fill="#38bdf8" opacity="0.28"/><rect x="383" y="82" width="217" height="10" rx="5" fill="#38bdf8" opacity="0.28"/><rect x="0" y="124" width="314" height="10" rx="5" fill="#38bdf8" opacity="0.28"/><rect x="409" y="166" width="191" height="10" rx="5" fill="#38bdf8" opacity="0.28"/><rect x="0" y="208" width="288" height="10" rx="5" fill="#38bdf8" opacity="0.28"/><rect x="435" y="250" width="165" height="10" rx="5" fill="#38bdf8" opacity="0.28"/><rect x="0" y="292" width="262" height="10" rx="5" fill="#38bdf8" opacity="0.28"/><rect x="461" y="334" width="139" height="10" rx="5" fill="#38bdf8" opacity="0.28"/><rect x="0" y="376" width="236" height="10" rx="5" fill="#38bdf8" opacity="0.28"/><rect x="267" y="418" width="333" height="10" rx="5" fill="#38bdf8" opacity="0.28"/><rect x="0" y="460" width="210" height="10" rx="5" fill="#38bdf8" opacity="0.28"/><rect x="293" y="502" width="307" height="10" rx="5" fill="#38bdf8" opacity="0.28"/><rect x="0" y="544" width="184" height="10" rx="5" fill="#38bdf8" opacity="0.28"/><rect x="319" y="586" width="281" height="10" rx="5" fill="#38bdf8" opacity="0.28"/><rect x="0" y="628" width="158" height="10" rx="5" fill="#38bdf8" opacity="0.28"/><rect x="345" y="670" width="255" height="10" rx="5" fill="#38bdf8" opacity="0.28"/><rect x="0" y="712" width="132" height="10" rx="5" fill="#38bdf8" opacity="0.28"/><rect x="371" y="754" width="229" height="10" rx="5" fill="#38bdf8" opacity="0.28"/><g fill="#0a0a14" transform="translate(300 480) rotate(-8)"><circle cx="0" cy="-60" r="26"/><path d="M-14 -40 L-38 30 L-20 34 L-6 -20 Z"/><path d="M10 -40 L44 22 L26 30 L-2 -22 Z"/><path d="M-12 -34 L-70 -10 L-64 4 L-8 -18 Z"/><path d="M12 -34 L66 -44 L70 -30 L16 -18 Z"/></g><ellipse cx="300" cy="640" rx="90" ry="18" fill="#000" opacity="0.5"/><path d="M430 60 L390 200 L420 200 L370 330 L450 170 L415 170 Z" fill="#fef08a" opacity="0.9"/><text x="300" y="740" text-anchor="middle" font-size="30" fill="#fef08a" opacity="0.9" font-family="sans-serif">뒤에 뭔가 있다!</text></svg>