<svg xmlns="http://www.w3.org/2000/svg" viewBox="0 0 600 800"><defs><linearGradient id="morning" x1="0" y1="0" x2="0" y2="1"><stop offset="0" stop-color="#38bdf8"/><stop offset="0.6" stop-color="#a5d8ff"/><stop offset="1" stop-color="#fef9c3"/></linearGradient></defs><rect width="600" height="800" fill="url(#morning)"/><g opacity="0.5"><line x1="300" y1="240" x2="620" y2="240" stroke="#fff" stroke-width="10" opacity="0.35"/><line x1="300" y1="240" x2="577" y2="400" stroke="#fff" stroke-width="10" opacity="0.35"/><line x1="300" y1="240" x2="460" y2="517" stroke="#fff" stroke-width="10" opacity="0.35"/><line x1="300" y1="240" x2="300" y2="560" stroke="#fff" stroke-width="10" opacity="0.35"/><line x1="300" y1="240" x2="140" y2="517" stroke="#fff" stroke-width="10" opacity="0.35"/><line x1="300" y1="240" x2="23" y2="400" stroke="#fff" stroke-width="10" opacity="0.35"/><line x1="300" y1="240" x2="-20" y2="240" stroke="#fff" stroke-width="10" opacity="0.35"/><line x1="300" y1="240" x2="23" y2="80" stroke="#fff" stroke-width="10" opacity="0.35"/><line x1="300" y1="240" x2="140" y2="-37" stroke="#fff" stroke-width="10" opacity="0.35"/><line x1="300" y1="240" x2="300" y2="-80" stroke="#fff" stroke-width="10" opacity="0.35"/><line x1="300" y1="240" x2="460" y2="-37" stroke="#fff" stroke-width="10" opacity="0.35"/><line x1="300" y1="240" x2="577" y2="80" stroke="#fff" stroke-width="10" opacity="0.35"/></g><circle cx="300" cy="240" r="80" fill="#fff7d6"/><circle cx="300" cy="240" r="64" fill="#ffdf5d"/><g fill="none" stroke-width="26" opacity="0.55"><path d="M60 620 A240 240 0 0 1 540 620" stroke="#f87171"/><path d="M86 620 A214 214 0 0 1 514 620" stroke="#fb923c"/><path d="M112 620 A188 188 0 0 1 488 620" stroke="#facc15"/><path d="M138 620 A162 162 0 0 1 462 620" stroke="#4ade80"/><path d="M164 620 A136 136 0 0 1 436 620" stroke="#38bdf8"/></g><g fill="#172554"><circle cx="230" cy="600" r="26"/><path d="M204 628 q26 -12 52 0 l6 100 -64 0 Z"/><path d="M204 636 L160 590" stroke="#172554" stroke-width="16" stroke-linecap="round"/><path d="M256 636 L300 590" stroke="#172554" stroke-width="16" stroke-linecap="round"/><circle cx="380" cy="610" r="24"/><path d="M356 636 q24 -12 48 0 l6 96 -60 0 Z"/><path d="M356 644 L314 600" stroke="#172554" stroke-width="15" stroke-linecap="round"/><path d="M404 644 L446 600" stroke="#172554" stroke-width="15" stroke-linecap="round"/></g><ellipse cx="300" cy="760" rx="400" ry="90" fill="#bbf7d0" opacity="0.7"/><rect x="30" y="40" width="14" height="9" rx="2" fill="#f472b6" opacity="0.9" transform="rotate(0 30 40)"/><rect x="241" y="377" width="14" height="9" rx="2" fill="#a78bfa" opacity="0.9" transform="rotate(61 241 377)"/><rect x="452" y="154" width="14" height="9" rx="2" fill="#38bdf8" opacity="0.9" transform="rotate(122 452 154)"/><rect x="123" y="491" width="14" height="9" rx="2" fill="#fbbf24" opacity="0.9" transform="rotate(183 123 491)"/><rect x="334" y="268" width="14" height="9" rx="2" fill="#34d399" opacity="0.9" transform="rotate(244 334 268)"/><rect x="545" y="45" width="14" height="9" rx="2" fill="#f472b6" opacity="0.9" transform="rotate(305 545 45)"/><rect x="216" y="382" width="14" height="9" rx="2" fill="#a78bfa" opacity="0.9" transform="rotate(6 216 382)"/><rect x="427" y="159" width="14" height="9" rx="2" fill="#38bdf8" opacity="0.9" transform="rotate(67 427 159)"/><rect x="98" y="496" width="14" height="9" rx="2" fill="#fbbf24" opacity="0.9" transform="rotate(128 98 496)"/><rect x="309" y="273" width="14" height="9" rx="2" fill="#34d399" opacity="0.9" transform="rotate(189 309 273)"/><rect x="520" y="50" width="14" height="9" rx="2" fill="#f472b6" opacity="0.9" transform="rotate(250 520 50)"/><rect x="191" y="387" width="14" height="9" rx="2" fill="#a78bfa" opacity="0.9" transform="rotate(311 191 387)"/><rect x="402" y="164" width="14" height="9" rx="2" fill="#38bdf8" opacity="0.9" transform="rotate(12 402 164)"/><rect x="73" y="501" width="14" height="9" rx="2" fill="#fbbf24" opacity="0.9" transform="rotate(73 73 501)"/><rect x="284" y="278" width="14" height="9" rx="2" fill="#34d399" opacity="0.9" transform="rotate(134 284 278)"/><rect x="495" y="55" width="14" height="9" rx="2" fill="#f472b6" opacity="0.9" transform="rotate(195 495 55)"/><rect x="166" y="392" width="14" height="9" rx="2" fill="#a78bfa" opacity="0.9" transform="rotate(256 166 392)"/><rect x="377" y="169" width="14" height="9" rx="2" fill="#38bdf8" opacity="0.9" transform="rotate(317 377 169)"/><rect x="48" y="506" width="14" height="9" rx="2" fill="#fbbf24" opacity="0.9" transform="rotate(18 48 506)"/><rect x="259" y="283" width="14" height="9" rx="2" fill="#34d399" opacity="0.9" transform="rotate(79 259 283)"/><rect x="470" y="60" width="14" height="9" rx="2" fill="#f472b6" opacity="0.9" transform="rotate(140 470 60)"/><rect x="141" y="397" width="14" height="9" rx="2" fill="#a78bfa" opacity="0.9" transform="rotate(201 141 397)"/><rect x="352" y="174" width="14" height="9" rx="2" fill="#38bdf8" opacity="0.9" transform="rotate(262 352 174)"/><rect x="563" y="511" width="14" height="9" rx="2" fill="#fbbf24" opacity="0.9" transform="rotate(323 563 511)"/><rect x="234" y="288" width="14" height="9" rx="2" fill="#34d399" opacity="0.9" transform="rotate(24 234 288)"/><rect x="445" y="65" width="14" height="9" rx="2" fill="#f472b6" opacity="0.9" transform="rotate(85 445 65)"/><text x="300" y="120" text-anchor="middle" font-size="34" fill="#172554" font-weight="bold" font-family="sans-serif">우리가 해냈어!</text></svg>